<?xml version="1.0" standalone="no"?>
<!DOCTYPE svg PUBLIC "-//W3C//DTD SVG 20010904//EN"
 "http://www.w3.org/TR/2001/REC-SVG-20010904/DTD/svg10.dtd">
<svg version="1.0" xmlns="http://www.w3.org/2000/svg"
 width="957.000000pt" height="1280.000000pt" viewBox="0 0 957.000000 1280.000000"
 preserveAspectRatio="xMidYMid meet">
<g transform="translate(0.000000,1280.000000) scale(0.100000,-0.100000)"
fill="#000000" stroke="none">
<path d="M4625 12779 c-125 -34 -212 -84 -295 -168 -104 -105 -151 -206 -175
-373 l-6 -38 -988 0 c-626 0 -1008 -4 -1042 -10 -79 -15 -157 -57 -215 -115
-62 -62 -99 -131 -119 -222 -9 -38 -20 -78 -25 -90 l-10 -23 -875 0 -875 0 0
-5870 0 -5870 4785 0 4785 0 0 5870 0 5870 -885 0 -885 0 -10 23 c-5 12 -17
53 -25 91 -39 176 -167 304 -334 336 -34 6 -423 10 -1063 10 -798 0 -1009 3
-1012 13 -2 6 -10 48 -18 92 -45 238 -218 413 -467 474 -101 25 -153 25 -246
0z m-2948 -1360 c7 -7 2 -50 -19 -147 -34 -156 -33 -218 2 -300 29 -68 112
-144 182 -169 51 -17 166 -18 2933 -18 2767 0 2882 1 2933 18 70 25 152 101
183 169 32 72 31 184 -3 328 -17 71 -22 109 -15 118 7 9 153 12 691 10 l681
-3 0 -5550 0 -5550 -4460 0 -4460 0 -3 5540 c-1 3047 0 5546 3 5553 6 16 1335
18 1352 1z"/>
<path d="M2522 10647 c-70 -22 -83 -52 -136 -300 -55 -254 -54 -266 9 -293 42
-17 427 -20 487 -4 66 19 95 52 112 130 9 38 16 80 16 94 l0 26 -110 0 c-123
0 -131 -4 -145 -84 -15 -85 -109 -128 -144 -65 -13 24 -12 38 12 150 15 68 31
147 37 176 15 67 47 103 94 103 54 0 71 -32 56 -104 -6 -31 -9 -60 -5 -66 3
-6 51 -10 110 -10 81 0 107 3 119 16 9 8 16 17 16 19 0 2 7 35 15 74 29 141 9
151 -292 150 -122 -1 -232 -6 -251 -12z"/>
<path d="M3190 10638 c-15 -37 -121 -549 -118 -572 3 -19 11 -21 84 -24 57 -2
84 1 92 10 5 7 27 92 47 188 20 96 43 185 52 198 16 27 49 41 76 34 36 -9 37
-43 2 -208 -30 -140 -32 -162 -20 -181 34 -52 136 -51 217 3 43 28 58 30 58 9
0 -8 15 -24 33 -35 29 -18 50 -20 207 -20 202 0 226 7 273 78 40 60 97 56 97
-7 1 -62 32 -71 238 -71 196 0 239 12 269 75 17 36 49 53 78 41 12 -4 15 -18
13 -58 l-3 -53 78 -3 c47 -2 84 2 92 8 8 6 23 52 35 103 24 104 39 127 87 127
46 0 60 -31 44 -94 -18 -74 -15 -103 16 -123 50 -33 133 -20 215 33 26 17 27
17 55 -13 16 -17 43 -34 60 -37 41 -9 108 9 157 42 37 25 37 27 16 32 -47 11
-46 25 8 281 28 134 48 247 46 251 -9 14 -170 9 -181 -4 -6 -7 -33 -123 -62
-257 -28 -134 -56 -250 -62 -258 -29 -34 -85 1 -75 49 3 15 9 41 12 57 5 23 1
35 -19 55 -23 23 -34 26 -96 26 -39 0 -73 5 -77 11 -9 15 45 78 86 100 21 12
55 19 87 19 56 0 73 14 73 60 0 20 -4 21 -82 18 l-82 -3 -81 -104 c-79 -104
-105 -127 -105 -97 0 9 14 81 31 162 17 80 28 152 25 160 -8 20 -159 20 -176
-1 -7 -8 -32 -108 -56 -222 -24 -115 -48 -218 -54 -230 l-9 -23 -38 23 c-30
17 -53 22 -109 22 -79 -1 -118 -18 -134 -60 -22 -57 -103 -71 -116 -20 -9 35
46 282 68 311 36 45 108 20 108 -39 0 -16 9 -17 92 -15 l93 3 9 44 c9 41 8 46
-18 68 -26 22 -32 23 -213 23 -196 0 -241 -9 -264 -52 -5 -10 -23 -80 -40
-156 -16 -75 -34 -141 -38 -145 -5 -5 -23 1 -39 13 -25 18 -45 23 -99 23 -85
1 -127 -15 -144 -55 -24 -58 -92 -76 -115 -30 -12 24 0 116 19 140 6 8 43 12
119 12 161 0 208 28 224 133 10 66 8 78 -18 100 -18 15 -44 17 -212 17 -171 0
-194 -2 -223 -20 -42 -25 -46 -35 -77 -185 -37 -179 -43 -194 -73 -201 -16 -4
-30 -1 -41 10 -15 15 -14 28 16 176 19 88 31 168 27 179 -10 34 -57 44 -181
39 l-116 -4 8 45 c14 92 20 86 -79 89 -83 3 -88 2 -97 -20z m849 -174 c21 -15
23 -22 18 -66 -4 -27 -9 -53 -12 -58 -3 -6 -31 -10 -61 -10 -53 0 -54 1 -54
29 0 46 20 90 49 106 33 18 32 18 60 -1z"/>
<path d="M5900 10646 c-6 -8 -10 -25 -8 -38 3 -21 8 -23 81 -26 88 -3 107 5
107 49 l0 29 -84 0 c-61 0 -87 -4 -96 -14z"/>
<path d="M6763 10618 c-6 -7 -16 -38 -22 -68 -22 -105 -31 -129 -51 -135 -30
-10 -60 12 -60 43 -1 64 -26 72 -233 72 -165 0 -176 -1 -208 -23 -55 -37 -79
-146 -41 -181 11 -9 62 -30 115 -46 107 -34 127 -48 127 -91 0 -42 -51 -93
-82 -84 -31 10 -49 35 -46 65 3 25 2 25 -84 28 l-86 3 -12 -36 c-19 -57 -90
-58 -90 -1 0 11 16 95 35 184 19 90 32 168 29 173 -3 5 -43 9 -89 9 -70 0 -86
-3 -94 -17 -5 -10 -23 -88 -41 -173 -18 -85 -39 -170 -46 -189 -13 -30 -12
-37 2 -58 22 -35 78 -56 125 -48 21 4 63 22 93 40 l56 33 12 -26 c22 -45 50
-52 218 -52 85 0 171 5 191 10 49 14 75 46 88 109 17 79 5 93 -121 133 -137
43 -159 68 -123 138 29 57 94 52 118 -9 9 -21 23 -41 32 -45 31 -12 146 -6
182 9 19 8 38 15 40 15 8 0 -2 -68 -27 -188 -36 -170 -31 -174 222 -170 229 4
237 9 268 170 13 65 30 88 66 88 29 0 31 11 5 34 -45 40 -168 38 -206 -4 -10
-11 -24 -50 -31 -87 -8 -37 -19 -81 -25 -96 -21 -51 -78 -63 -105 -23 -14 23
-13 35 18 178 l33 153 105 3 c110 3 130 10 130 48 0 23 -2 23 -102 26 l-103 3
0 45 0 45 -86 3 c-61 2 -89 -1 -96 -10z"/>
<path d="M2131 9440 c-89 -43 -211 -118 -306 -190 -82 -61 -105 -71 -105 -45
0 13 -41 15 -305 15 l-305 0 0 -305 0 -305 304 0 303 0 5 236 5 236 49 50 c64
66 217 180 343 258 94 58 119 80 89 80 -7 0 -42 -14 -77 -30z"/>
<path d="M2151 8349 c-75 -33 -223 -124 -321 -198 -92 -70 -95 -71 -109 -51
-13 19 -22 20 -312 20 l-299 0 0 -304 0 -303 68 -6 c93 -9 514 -8 528 1 8 5
13 86 16 242 l5 235 70 65 c78 73 182 149 323 238 120 75 137 108 31 61z"/>
<path d="M3678 7593 c870 -2 2294 -2 3165 0 870 1 158 2 -1583 2 -1741 0
-2453 -1 -1582 -2z"/>
<path d="M2120 7210 c-91 -44 -214 -122 -319 -201 -65 -49 -66 -50 -80 -30
-13 20 -21 21 -312 21 l-299 0 0 -304 0 -304 73 -7 c39 -3 176 -5 302 -3 l230
3 6 238 6 239 39 39 c56 58 218 180 341 258 95 59 132 91 106 91 -5 0 -47 -18
-93 -40z"/>
<path d="M3678 6473 c870 -2 2294 -2 3165 0 870 1 158 2 -1583 2 -1741 0
-2453 -1 -1582 -2z"/>
<path d="M2134 6096 c-92 -44 -215 -120 -313 -195 -44 -34 -84 -61 -89 -61 -5
0 -12 9 -15 20 -5 20 -12 20 -304 18 l-298 -3 -3 -302 -2 -302 42 -6 c24 -3
160 -5 303 -3 l260 3 6 240 7 239 54 52 c78 72 209 168 332 244 58 36 106 71
106 78 0 18 -8 16 -86 -22z"/>
<path d="M3678 5353 c870 -2 2294 -2 3165 0 870 1 158 2 -1583 2 -1741 0
-2453 -1 -1582 -2z"/>
<path d="M2083 4966 c-109 -58 -124 -67 -254 -163 -89 -65 -109 -74 -109 -48
0 13 -41 15 -305 15 l-305 0 2 -302 3 -303 301 -3 301 -2 5 234 c4 190 8 240
21 259 32 49 281 236 430 321 26 16 47 32 47 37 0 19 -39 6 -137 -45z"/>
<path d="M3683 4253 c867 -2 2287 -2 3155 0 867 1 157 2 -1578 2 -1735 0
-2445 -1 -1577 -2z"/>
<path d="M2114 3881 c-86 -42 -224 -131 -319 -205 -59 -46 -60 -47 -74 -27
-13 20 -22 21 -312 21 l-299 0 0 -305 0 -305 304 0 303 0 5 237 5 238 70 65
c84 78 201 165 325 241 138 84 133 109 -8 40z"/>
<path d="M2109 2757 c-99 -51 -194 -111 -299 -191 -73 -56 -75 -57 -89 -37
-13 20 -22 21 -312 21 l-299 0 0 -304 0 -303 77 -7 c104 -8 505 -7 519 2 8 5
13 86 16 242 l5 235 72 66 c81 75 183 150 321 237 90 56 118 82 88 82 -7 0
-52 -20 -99 -43z"/>
<path d="M3678 2023 c870 -2 2294 -2 3165 0 870 1 158 2 -1583 2 -1741 0
-2453 -1 -1582 -2z"/>
<path d="M2120 1640 c-91 -44 -214 -122 -318 -201 -65 -49 -66 -50 -82 -29
-15 20 -22 20 -310 18 l-295 -3 -3 -302 -2 -301 72 -7 c40 -3 177 -5 303 -3
l230 3 6 238 6 239 39 39 c56 58 218 180 341 258 95 59 132 91 106 91 -5 0
-47 -18 -93 -40z"/>
<path d="M3678 903 c870 -2 2294 -2 3165 0 870 1 158 2 -1583 2 -1741 0 -2453
-1 -1582 -2z"/>
</g>
</svg>
